<svg width="16" height="16" viewBox="0 0 16 16" fill="none" xmlns="http://www.w3.org/2000/svg">
<path d="M7.97034 15.486C8.43909 15.486 8.89482 15.3115 9.33752 14.9625C9.78023 14.6188 10.1787 14.1214 10.5328 13.4703C10.887 12.8193 11.1656 12.0328 11.3688 11.111C11.5771 10.1839 11.6813 9.14221 11.6813 7.98596C11.6813 6.82971 11.5771 5.79065 11.3688 4.86877C11.1656 3.9469 10.887 3.16044 10.5328 2.5094C10.1787 1.85315 9.78023 1.35315 9.33752 1.0094C8.89482 0.665649 8.43909 0.493774 7.97034 0.493774C7.50159 0.493774 7.04586 0.665649 6.60315 1.0094C6.16565 1.35315 5.76982 1.85315 5.41565 2.5094C5.06669 3.16044 4.78805 3.9469 4.57971 4.86877C4.37138 5.79065 4.26721 6.82971 4.26721 7.98596C4.26721 9.14221 4.37138 10.1839 4.57971 11.111C4.78805 12.0328 5.06669 12.8193 5.41565 13.4703C5.76982 14.1214 6.16565 14.6188 6.60315 14.9625C7.04586 15.3115 7.50159 15.486 7.97034 15.486ZM7.97034 0.798462C8.41305 0.798462 8.83232 0.983358 9.22815 1.35315C9.62398 1.71773 9.97555 2.22555 10.2828 2.87659C10.5901 3.52763 10.8297 4.29065 11.0016 5.16565C11.1787 6.03544 11.2672 6.97555 11.2672 7.98596C11.2672 8.95471 11.1787 9.87138 11.0016 10.736C10.8297 11.5953 10.5901 12.3584 10.2828 13.025C9.97555 13.6917 9.62398 14.2151 9.22815 14.5953C8.83232 14.9808 8.41305 15.1735 7.97034 15.1735C7.53284 15.1735 7.11617 14.9808 6.72034 14.5953C6.3245 14.2151 5.97294 13.6917 5.66565 13.025C5.36357 12.3584 5.12138 11.5953 4.93909 10.736C4.762 9.87138 4.67346 8.95471 4.67346 7.98596C4.67346 6.97555 4.762 6.03544 4.93909 5.16565C5.12138 4.29065 5.36357 3.52763 5.66565 2.87659C5.97294 2.22555 6.3245 1.71773 6.72034 1.35315C7.11617 0.983358 7.53284 0.798462 7.97034 0.798462ZM7.78284 0.610962V15.3297H8.16565V0.610962H7.78284ZM7.97034 11.4625C7.20471 11.4625 6.48336 11.5224 5.80627 11.6422C5.12919 11.7568 4.51982 11.9183 3.97815 12.1266C3.43648 12.3349 2.98075 12.5771 2.61096 12.8531L2.90002 13.0953C3.26982 12.8349 3.70732 12.6136 4.21252 12.4313C4.71773 12.2438 5.28544 12.1031 5.91565 12.0094C6.54586 11.9104 7.23075 11.861 7.97034 11.861C8.72034 11.861 9.40784 11.9104 10.0328 12.0094C10.663 12.1031 11.2281 12.2438 11.7281 12.4313C12.2334 12.6136 12.6709 12.8349 13.0406 13.0953L13.3375 12.8531C12.9677 12.5771 12.5094 12.3349 11.9625 12.1266C11.4209 11.9183 10.8115 11.7568 10.1344 11.6422C9.46252 11.5224 8.74117 11.4625 7.97034 11.4625ZM15.3375 7.77502H0.618774V8.16565H15.3375V7.77502ZM7.97034 4.5094C8.74117 4.5094 9.46252 4.45211 10.1344 4.33752C10.8115 4.22294 11.4209 4.06148 11.9625 3.85315C12.5094 3.64482 12.9677 3.40263 13.3375 3.12659L13.0406 2.8844C12.6709 3.14482 12.2334 3.36617 11.7281 3.54846C11.2281 3.73075 10.663 3.87138 10.0328 3.97034C9.40784 4.0693 8.72034 4.11877 7.97034 4.11877C7.23075 4.11877 6.54586 4.0693 5.91565 3.97034C5.28544 3.87138 4.71773 3.73075 4.21252 3.54846C3.70732 3.36617 3.26982 3.14482 2.90002 2.8844L2.61096 3.12659C2.98075 3.40263 3.43648 3.64482 3.97815 3.85315C4.51982 4.06148 5.12919 4.22294 5.80627 4.33752C6.48336 4.45211 7.20471 4.5094 7.97034 4.5094ZM7.97034 15.5406C9.01721 15.5406 9.99638 15.3427 10.9078 14.9469C11.8193 14.5563 12.6214 14.0146 13.3141 13.3219C14.012 12.624 14.5589 11.8193 14.9547 10.9078C15.3505 9.99117 15.5485 9.012 15.5485 7.97034C15.5485 6.92867 15.3505 5.95211 14.9547 5.04065C14.5589 4.12398 14.012 3.3193 13.3141 2.62659C12.6214 1.92867 11.8193 1.3844 10.9078 0.993774C9.99638 0.597941 9.01721 0.400024 7.97034 0.400024C6.92867 0.400024 5.9495 0.597941 5.03284 0.993774C4.12138 1.3844 3.3193 1.92867 2.62659 2.62659C1.93388 3.3193 1.38961 4.12398 0.993774 5.04065C0.597941 5.95211 0.400024 6.92867 0.400024 7.97034C0.400024 9.012 0.595337 9.99117 0.985962 10.9078C1.3818 11.8193 1.92607 12.624 2.61877 13.3219C3.31669 14.0146 4.12138 14.5563 5.03284 14.9469C5.9495 15.3427 6.92867 15.5406 7.97034 15.5406ZM7.97034 15.15C6.98075 15.15 6.05107 14.9625 5.18127 14.5875C4.31669 14.2177 3.55367 13.7047 2.89221 13.0485C2.23596 12.387 1.72034 11.624 1.34534 10.7594C0.975545 9.88961 0.790649 8.95992 0.790649 7.97034C0.790649 6.98075 0.975545 6.05367 1.34534 5.18909C1.72034 4.3193 2.23596 3.55627 2.89221 2.90002C3.55367 2.23857 4.3193 1.72294 5.18909 1.35315C6.05888 0.978149 6.98596 0.790649 7.97034 0.790649C8.95992 0.790649 9.88961 0.978149 10.7594 1.35315C11.6292 1.72294 12.3922 2.23857 13.0485 2.90002C13.7099 3.55627 14.2255 4.3193 14.5953 5.18909C14.9703 6.05367 15.1578 6.98075 15.1578 7.97034C15.1578 8.95992 14.9703 9.88961 14.5953 10.7594C14.2255 11.624 13.7099 12.387 13.0485 13.0485C12.387 13.7047 11.6214 14.2177 10.7516 14.5875C9.887 14.9625 8.95992 15.15 7.97034 15.15Z" fill="#202020"/>
</svg>
