<svg width="16" height="16" viewBox="0 0 16 16" fill="none" xmlns="http://www.w3.org/2000/svg">
<path d="M11.3174 14.4554C11.8005 14.4554 12.2448 14.3779 12.6504 14.223C13.0605 14.068 13.4388 13.8128 13.7852 13.4573C13.7943 13.4437 13.8034 13.43 13.8125 13.4163C13.8262 13.4072 13.8398 13.3958 13.8535 13.3821C14.0586 13.1771 14.209 12.9651 14.3047 12.7464C14.4049 12.5276 14.4551 12.3157 14.4551 12.1106C14.4551 11.9238 14.4049 11.7438 14.3047 11.5706C14.2044 11.3974 14.054 11.2425 13.8535 11.1058L11.8848 9.76592C11.6387 9.5973 11.3698 9.51071 11.0781 9.50616C10.7865 9.49704 10.488 9.64288 10.1826 9.94366L9.71777 10.3948C9.64486 10.4677 9.56055 10.5133 9.46484 10.5315C9.36914 10.5498 9.26432 10.527 9.15039 10.4632C9.05013 10.4131 8.9043 10.3196 8.71289 10.1829C8.52604 10.0416 8.31641 9.87302 8.08398 9.67705C7.85612 9.48109 7.62826 9.26918 7.40039 9.04131C7.14062 8.7861 6.92188 8.5628 6.74414 8.37139C6.57096 8.17543 6.42513 7.99314 6.30664 7.82452C6.18815 7.6559 6.07878 7.48044 5.97852 7.29815C5.92383 7.18422 5.9056 7.0794 5.92383 6.9837C5.94206 6.88799 5.98763 6.80368 6.06055 6.73077L6.50488 6.27276C6.81022 5.9583 6.95833 5.65752 6.94922 5.37041C6.9401 5.07875 6.85352 4.80987 6.68945 4.56377L5.34277 2.59502C5.2015 2.3945 5.04655 2.24639 4.87793 2.15069C4.70931 2.05498 4.5293 2.00485 4.33789 2.0003C3.91406 1.99118 3.49023 2.1917 3.06641 2.60186C3.05273 2.61553 3.03906 2.62692 3.02539 2.63604C3.01628 2.64515 3.00716 2.65427 2.99805 2.66338C2.64714 3.00062 2.39193 3.37204 2.23242 3.77764C2.07747 4.18324 2 4.62302 2 5.09698C2 5.71677 2.13444 6.36846 2.40332 7.05205C2.67676 7.73565 3.05729 8.42608 3.54492 9.12334C4.03711 9.82061 4.61816 10.5019 5.28809 11.1673C5.94889 11.8235 6.62565 12.3978 7.31836 12.8899C8.01107 13.3821 8.69466 13.7649 9.36914 14.0384C10.0482 14.3164 10.6976 14.4554 11.3174 14.4554ZM11.3242 13.9222C10.7454 13.9267 10.1325 13.7968 9.48535 13.5325C8.84277 13.2682 8.19564 12.9013 7.54395 12.4319C6.89225 11.9625 6.26107 11.4248 5.65039 10.8187C5.03971 10.2034 4.4974 9.56768 4.02344 8.91143C3.55404 8.25062 3.18717 7.59665 2.92285 6.94952C2.65853 6.29782 2.52637 5.68031 2.52637 5.09698C2.52637 4.70961 2.59473 4.34275 2.73145 3.99639C2.86816 3.65004 3.08008 3.33786 3.36719 3.05987C3.3763 3.0462 3.3877 3.0348 3.40137 3.02569C3.41504 3.01657 3.42643 3.00518 3.43555 2.99151C3.59049 2.84112 3.74316 2.72946 3.89355 2.65655C4.04395 2.57907 4.18294 2.54034 4.31055 2.54034C4.54297 2.54034 4.74349 2.66338 4.91211 2.90948L6.23828 4.86456C6.33398 5.0195 6.38411 5.18584 6.38867 5.36358C6.39323 5.53676 6.2998 5.71449 6.1084 5.89678L5.60938 6.3958C5.44531 6.55531 5.35417 6.73988 5.33594 6.94952C5.32227 7.15459 5.36556 7.346 5.46582 7.52373C5.58887 7.72881 5.78711 7.99769 6.06055 8.33038C6.33854 8.66306 6.66439 9.01853 7.03809 9.39678C7.28874 9.65199 7.53027 9.88441 7.7627 10.094C7.99967 10.3037 8.21842 10.4837 8.41895 10.6341C8.61947 10.7845 8.78809 10.9007 8.9248 10.9827C9.10254 11.083 9.29395 11.1263 9.49902 11.1126C9.70866 11.0989 9.89323 11.0101 10.0527 10.846L10.5518 10.3401C10.7386 10.1533 10.9186 10.0599 11.0918 10.0599C11.2695 10.0599 11.4336 10.1123 11.584 10.2171L13.5459 11.5433C13.6644 11.6253 13.7533 11.7164 13.8125 11.8167C13.8763 11.9124 13.9082 12.0195 13.9082 12.138C13.9082 12.416 13.7555 12.7122 13.4502 13.0267C13.4411 13.0358 13.432 13.0449 13.4229 13.054C13.4137 13.0631 13.4046 13.0722 13.3955 13.0814C13.1084 13.373 12.7894 13.5849 12.4385 13.7171C12.0921 13.8538 11.7207 13.9222 11.3242 13.9222Z" fill="#202020"/>
</svg>
