<svg width="24" height="24" viewBox="0 0 24 24" fill="none" xmlns="http://www.w3.org/2000/svg">
  <path d="M1 8.3095C1 9.94702 1.44409 11.5683 2.33228 13.1734C3.22819 14.7785 4.46007 16.3471 6.02791 17.8793C7.60348 19.4114 9.4146 20.8868 11.4613 22.3054C11.5385 22.3622 11.6273 22.4068 11.7278 22.4392C11.8282 22.4797 11.9208 22.5 12.0058 22.5C12.083 22.5 12.1718 22.4797 12.2722 22.4392C12.3727 22.4068 12.4615 22.3622 12.5387 22.3054C14.5854 20.8868 16.3927 19.4114 17.9605 17.8793C19.5361 16.3471 20.7679 14.7785 21.6561 13.1734C22.552 11.5683 23 9.94702 23 8.3095C23 7.31239 22.8455 6.40041 22.5366 5.57354C22.2354 4.73856 21.8067 4.01708 21.2507 3.40909C20.7023 2.8011 20.0574 2.33092 19.316 1.99855C18.5745 1.66618 17.7597 1.5 16.8715 1.5C15.8598 1.5 14.9098 1.77968 14.0216 2.33903C13.1334 2.89027 12.4615 3.63607 12.0058 4.57643C11.5424 3.63607 10.8666 2.89027 9.97841 2.33903C9.09022 1.77968 8.14025 1.5 7.12849 1.5C6.24803 1.5 5.43321 1.66618 4.68404 1.99855C3.9426 2.33092 3.29384 2.8011 2.73776 3.40909C2.1894 4.01708 1.76075 4.73856 1.45182 5.57354C1.15061 6.40041 1 7.31239 1 8.3095ZM1.85729 8.3095C1.85729 7.14215 2.08127 6.11668 2.52923 5.23306C2.9849 4.34134 3.6105 3.64418 4.406 3.14157C5.20151 2.63897 6.10514 2.38767 7.1169 2.38767C7.81973 2.38767 8.44918 2.52548 9.00527 2.8011C9.56907 3.06862 10.0595 3.42936 10.4766 3.88332C10.9014 4.33729 11.2566 4.83584 11.5424 5.37898C11.6273 5.5249 11.7007 5.62623 11.7625 5.68298C11.832 5.73972 11.9131 5.76809 12.0058 5.76809C12.0907 5.76809 12.1641 5.73972 12.2259 5.68298C12.2954 5.62623 12.3727 5.5249 12.4576 5.37898C12.7434 4.83584 13.0986 4.33729 13.5234 3.88332C13.9482 3.42936 14.4387 3.06862 14.9947 2.8011C15.5508 2.52548 16.1803 2.38767 16.8831 2.38767C17.8949 2.38767 18.7946 2.63897 19.5824 3.14157C20.3779 3.64418 21.0035 4.34134 21.4592 5.23306C21.9149 6.11668 22.1427 7.14215 22.1427 8.3095C22.1427 9.45252 21.8801 10.6036 21.3549 11.7629C20.8375 12.9221 20.1192 14.0651 19.2001 15.192C18.2887 16.3188 17.2306 17.4131 16.0258 18.4751C14.821 19.5371 13.5312 20.5423 12.1564 21.4907C12.0869 21.5475 12.0367 21.5759 12.0058 21.5759C11.9749 21.5759 11.9208 21.5475 11.8436 21.4907C10.4766 20.5423 9.19063 19.5371 7.98578 18.4751C6.78094 17.4131 5.71898 16.3188 4.79989 15.192C3.88081 14.0651 3.15868 12.9221 2.63349 11.7629C2.11603 10.6036 1.85729 9.45252 1.85729 8.3095Z" fill="white" />
</svg>