<svg width="16" height="16" viewBox="0 0 16 16" fill="none" xmlns="http://www.w3.org/2000/svg">
<path fill-rule="evenodd" clip-rule="evenodd" d="M7.75 7.5C8.7165 7.5 9.5 6.7165 9.5 5.75C9.5 4.7835 8.7165 4 7.75 4C6.7835 4 6 4.7835 6 5.75C6 6.7165 6.7835 7.5 7.75 7.5ZM7.75 8C8.99264 8 10 6.99264 10 5.75C10 4.50736 8.99264 3.5 7.75 3.5C6.50736 3.5 5.5 4.50736 5.5 5.75C5.5 6.99264 6.50736 8 7.75 8Z" fill="#202020"/>
<path fill-rule="evenodd" clip-rule="evenodd" d="M11.2984 8.18288C11.7428 7.14793 12 6.29394 12 5.75C12 3.40279 10.0972 1.5 7.75 1.5C5.40279 1.5 3.5 3.40279 3.5 5.75C3.5 6.29394 3.7572 7.14793 4.20162 8.18288C4.63698 9.19673 5.22115 10.3161 5.81071 11.3635C6.39937 12.4092 6.98871 13.3749 7.43124 14.0796C7.54889 14.2669 7.65607 14.4357 7.75 14.5824C7.84393 14.4357 7.95111 14.2669 8.06876 14.0796C8.51129 13.3749 9.10063 12.4092 9.68929 11.3635C10.2789 10.3161 10.863 9.19673 11.2984 8.18288ZM8.04807 15.0435C9.08908 13.4298 12.5 7.97303 12.5 5.75C12.5 3.12665 10.3734 1 7.75 1C5.12665 1 3 3.12665 3 5.75C3 7.97303 6.41092 13.4298 7.45193 15.0435C7.63939 15.334 7.75 15.5 7.75 15.5C7.75 15.5 7.86061 15.334 8.04807 15.0435Z" fill="#202020"/>
</svg>
